<svg aria-hidden="true" style="position: absolute; width: 0; height: 0; overflow: hidden;" version="1.1" xmlns="http://www.w3.org/2000/svg" xmlns:xlink="http://www.w3.org/1999/xlink">
<defs>
<symbol id="icon-rate-star-button" viewBox="0 0 32 32">
<title>rate-star-button</title>
<path d="M16 24.133l9.867 7.2-3.733-11.733 9.867-6.933h-12l-4-12-4 12h-12l9.867 6.933-3.733 11.733z"></path>
</symbol>
<symbol id="icon-next" viewBox="0 0 32 32">
<title>next</title>
<path d="M24.342 14.858l-14.39-14.385c-0.631-0.63-1.654-0.63-2.287 0-0.631 0.63-0.631 1.653 0 2.283l13.249 13.244-13.247 13.244c-0.631 0.63-0.631 1.653 0 2.284 0.631 0.63 1.656 0.63 2.287 0l14.39-14.385c0.622-0.623 0.622-1.662-0.002-2.284z"></path>
</symbol>
<symbol id="icon-cancel" viewBox="0 0 32 32">
<title>cancel</title>
<path d="M18.329 16.022l13.152-13.080c0.631-0.624 0.631-1.635 0-2.257-0.629-0.624-1.65-0.624-2.279 0l-13.14 13.069-13.262-13.263c-0.629-0.631-1.65-0.631-2.279 0-0.629 0.632-0.629 1.655 0 2.286l13.252 13.254-13.3 13.227c-0.629 0.624-0.629 1.635 0 2.257 0.629 0.624 1.65 0.624 2.279 0l13.289-13.215 13.209 13.211c0.629 0.631 1.65 0.631 2.279 0 0.629-0.632 0.629-1.655 0-2.286l-13.199-13.201z"></path>
</symbol>
<symbol id="icon-back" viewBox="0 0 32 32">
<title>back</title>
<path d="M7.658 17.142l14.39 14.385c0.631 0.63 1.654 0.63 2.288 0 0.631-0.63 0.631-1.653 0-2.283l-13.249-13.244 13.247-13.244c0.631-0.63 0.631-1.653 0-2.284-0.631-0.63-1.656-0.63-2.288 0l-14.39 14.385c-0.622 0.623-0.622 1.662 0.002 2.284z"></path>
</symbol>
<symbol id="icon-upload" viewBox="0 0 32 32">
<title>upload</title>
<path d="M16 0c-8.837 0-16 7.164-16 16 0 8.837 7.163 16 16 16 8.836 0 16-7.163 16-16s-7.164-16-16-16zM16 30c-7.72 0-14.031-6.28-14.031-14s6.311-14 14.031-14 14 6.28 14 14-6.28 14-14 14z"></path>
<path d="M16.699 11.293c-0.384-0.38-1.044-0.381-1.429 0l-6.999 6.899c-0.394 0.391-0.394 1.024 0 1.414s1.034 0.391 1.429 0l6.285-6.195 6.285 6.196c0.394 0.391 1.034 0.391 1.429 0 0.394-0.391 0.394-1.024 0-1.414l-7-6.9z"></path>
</symbol>
</defs>
</svg>
